<svg width="35" height="35" viewBox="0 0 35 35" fill="none" xmlns="http://www.w3.org/2000/svg">
<g clip-path="url(#clip0_60_989)">
<path d="M10.2083 0H5.83333C4.28624 0 2.80251 0.614582 1.70854 1.70854C0.614582 2.80251 0 4.28624 0 5.83333L0 10.2083C0 11.7554 0.614582 13.2392 1.70854 14.3331C2.80251 15.4271 4.28624 16.0417 5.83333 16.0417H10.2083C11.7554 16.0417 13.2392 15.4271 14.3331 14.3331C15.4271 13.2392 16.0417 11.7554 16.0417 10.2083V5.83333C16.0417 4.28624 15.4271 2.80251 14.3331 1.70854C13.2392 0.614582 11.7554 0 10.2083 0V0ZM13.125 10.2083C13.125 10.9819 12.8177 11.7237 12.2707 12.2707C11.7237 12.8177 10.9819 13.125 10.2083 13.125H5.83333C5.05979 13.125 4.31792 12.8177 3.77094 12.2707C3.22396 11.7237 2.91667 10.9819 2.91667 10.2083V5.83333C2.91667 5.05979 3.22396 4.31792 3.77094 3.77094C4.31792 3.22396 5.05979 2.91667 5.83333 2.91667H10.2083C10.9819 2.91667 11.7237 3.22396 12.2707 3.77094C12.8177 4.31792 13.125 5.05979 13.125 5.83333V10.2083Z" fill="white"/>
<path d="M29.1666 0H24.7916C23.2445 0 21.7608 0.614582 20.6668 1.70854C19.5728 2.80251 18.9583 4.28624 18.9583 5.83334V10.2083C18.9583 11.7554 19.5728 13.2392 20.6668 14.3331C21.7608 15.4271 23.2445 16.0417 24.7916 16.0417H29.1666C30.7137 16.0417 32.1974 15.4271 33.2914 14.3331C34.3853 13.2392 34.9999 11.7554 34.9999 10.2083V5.83334C34.9999 4.28624 34.3853 2.80251 33.2914 1.70854C32.1974 0.614582 30.7137 0 29.1666 0V0ZM32.0833 10.2083C32.0833 10.9819 31.776 11.7238 31.229 12.2707C30.682 12.8177 29.9401 13.125 29.1666 13.125H24.7916C24.018 13.125 23.2762 12.8177 22.7292 12.2707C22.1822 11.7238 21.8749 10.9819 21.8749 10.2083V5.83334C21.8749 5.05979 22.1822 4.31792 22.7292 3.77094C23.2762 3.22396 24.018 2.91667 24.7916 2.91667H29.1666C29.9401 2.91667 30.682 3.22396 31.229 3.77094C31.776 4.31792 32.0833 5.05979 32.0833 5.83334V10.2083Z" fill="white"/>
<path d="M10.2083 18.9584H5.83333C4.28624 18.9584 2.80251 19.573 1.70854 20.6669C0.614581 21.7609 0 23.2446 0 24.7917L0 29.1667C0 30.7138 0.614581 32.1975 1.70854 33.2915C2.80251 34.3855 4.28624 35.0001 5.83333 35.0001H10.2083C11.7554 35.0001 13.2392 34.3855 14.3331 33.2915C15.4271 32.1975 16.0417 30.7138 16.0417 29.1667V24.7917C16.0417 23.2446 15.4271 21.7609 14.3331 20.6669C13.2392 19.573 11.7554 18.9584 10.2083 18.9584ZM13.125 29.1667C13.125 29.9403 12.8177 30.6821 12.2707 31.2291C11.7237 31.7761 10.9819 32.0834 10.2083 32.0834H5.83333C5.05978 32.0834 4.31792 31.7761 3.77094 31.2291C3.22396 30.6821 2.91667 29.9403 2.91667 29.1667V24.7917C2.91667 24.0182 3.22396 23.2763 3.77094 22.7293C4.31792 22.1823 5.05978 21.875 5.83333 21.875H10.2083C10.9819 21.875 11.7237 22.1823 12.2707 22.7293C12.8177 23.2763 13.125 24.0182 13.125 24.7917V29.1667Z" fill="white"/>
<path d="M29.1666 18.9584H24.7916C23.2445 18.9584 21.7608 19.573 20.6668 20.6669C19.5728 21.7609 18.9583 23.2446 18.9583 24.7917V29.1667C18.9583 30.7138 19.5728 32.1975 20.6668 33.2915C21.7608 34.3855 23.2445 35.0001 24.7916 35.0001H29.1666C30.7137 35.0001 32.1974 34.3855 33.2914 33.2915C34.3853 32.1975 34.9999 30.7138 34.9999 29.1667V24.7917C34.9999 23.2446 34.3853 21.7609 33.2914 20.6669C32.1974 19.573 30.7137 18.9584 29.1666 18.9584ZM32.0833 29.1667C32.0833 29.9403 31.776 30.6821 31.229 31.2291C30.682 31.7761 29.9401 32.0834 29.1666 32.0834H24.7916C24.018 32.0834 23.2762 31.7761 22.7292 31.2291C22.1822 30.6821 21.8749 29.9403 21.8749 29.1667V24.7917C21.8749 24.0182 22.1822 23.2763 22.7292 22.7293C23.2762 22.1823 24.018 21.875 24.7916 21.875H29.1666C29.9401 21.875 30.682 22.1823 31.229 22.7293C31.776 23.2763 32.0833 24.0182 32.0833 24.7917V29.1667Z" fill="white"/>
</g>
<defs>
<clipPath id="clip0_60_989">
<rect width="35" height="35" fill="white"/>
</clipPath>
</defs>
</svg>
